<?xml version="1.0" standalone="no"?>
<!DOCTYPE svg PUBLIC "-//W3C//DTD SVG 20010904//EN"
 "http://www.w3.org/TR/2001/REC-SVG-20010904/DTD/svg10.dtd">
<svg version="1.0" xmlns="http://www.w3.org/2000/svg"
 width="119.000000pt" height="119.000000pt" viewBox="0 0 119.000000 119.000000"
 preserveAspectRatio="xMidYMid meet">
<metadata>
Created by potrace 1.11, written by Peter Selinger 2001-2013
</metadata>
<g transform="translate(0.000000,119.000000) scale(0.100000,-0.100000)"
fill="#000000" stroke="none">
<path d="M482 1114 c-204 -42 -367 -208 -406 -413 -34 -179 18 -343 149 -474
156 -155 395 -190 603 -89 75 36 188 149 224 224 131 271 29 579 -235 707
-113 55 -217 69 -335 45z m278 -64 c174 -75 277 -206 303 -387 3 -18 2 -34 -1
-34 -4 -1 -72 -2 -151 -3 -159 -2 -150 -6 -203 72 -17 26 -36 50 -42 54 -5 4
2 10 17 13 40 10 67 50 67 99 -1 79 -29 93 -187 95 l-123 2 0 -158 c0 -87 -4
-163 -8 -168 -4 -7 -66 -11 -166 -11 l-158 0 6 49 c23 173 159 333 329 386 89
28 241 24 317 -9z m-76 -159 c8 -9 14 -25 12 -35 -5 -34 -36 -46 -118 -46 -83
0 -80 -2 -80 55 0 14 0 29 1 35 1 5 37 9 86 8 64 -1 88 -5 99 -17z m-48 -188
c21 -32 42 -63 46 -68 8 -12 -165 -15 -177 -3 -6 6 -9 43 -6 101 1 26 4 27 50
27 48 0 49 -1 87 -57z m-272 -290 l54 -168 38 0 38 0 44 133 c25 73 48 129 52
125 4 -4 26 -65 50 -135 l42 -128 37 0 37 0 55 168 54 167 102 3 101 3 -4 -40
c-32 -274 -312 -469 -583 -405 -123 28 -213 90 -292 202 -35 49 -67 132 -76
197 l-6 45 101 0 101 0 55 -167z m183 155 c-2 -7 -22 -66 -43 -130 -21 -65
-41 -118 -44 -118 -3 0 -23 53 -44 118 -21 64 -41 123 -43 130 -4 9 17 12 87
12 70 0 91 -3 87 -12z m219 -113 c-23 -68 -45 -127 -48 -130 -5 -5 -88 228
-88 248 0 4 40 7 89 7 l90 0 -43 -125z"/>
</g>
</svg>
